<?xml version="1.0" encoding="UTF-8" standalone="no"?>
<svg id="svg2" xmlns:rdf="http://www.w3.org/1999/02/22-rdf-syntax-ns#" xmlns="http://www.w3.org/2000/svg" height="768" width="1024" version="1.1" xmlns:cc="http://creativecommons.org/ns#" xmlns:xlink="http://www.w3.org/1999/xlink" viewBox="0 0 1024 768.00001" xmlns:dc="http://purl.org/dc/elements/1.1/">
 <defs id="defs4">
  <linearGradient id="linearGradient4186">
   <stop id="stop4188" stop-color="#fff" offset="0"/>
   <stop id="stop4190" stop-color="#babdb6" offset="1"/>
  </linearGradient>
  <filter id="filter4197" style="color-interpolation-filters:sRGB" height="1.0724" width="1.3494" y="-.036220" x="-.17471">
   <feGaussianBlur id="feGaussianBlur4199" stdDeviation="0.44196437"/>
  </filter>
  <radialGradient id="radialGradient4192" xlink:href="#linearGradient4186" gradientUnits="userSpaceOnUse" cy="501.39" cx="204.82" r="27.143"/>
  <radialGradient id="radialGradient4291" gradientUnits="userSpaceOnUse" cy="413.44" cx="452.04" gradientTransform="matrix(1 0 0 .70142 -22.186 137.69)" r="106.57">
   <stop id="stop4287" stop-color="#fff" offset="0"/>
   <stop id="stop4289" stop-color="#fff" stop-opacity="0" offset="1"/>
  </radialGradient>
 </defs>
 <g id="layer2">
  <g id="g4501">
   <g id="g4232" fill-rule="evenodd" transform="matrix(.99980 -.020240 .020240 .99980 507.83 2.7884)">
    <path id="path4234" d="m138.11 469.46s-16.148 0.27048-15.895-0.99221c0.25254-1.2627 16.545-48.271 19.575-48.523 3.0305-0.25254 52.408-12.818 52.408-12.818l59.852 11.112 27.364 23.851 13.078 43.444-13.925 0.20922-40.659-59.928-72.478-2.0203c-8.0387 16.504-29.32 45.666-29.32 45.666z" stroke="#000" stroke-width="1px"/>
    <path id="path4236" d="m124.44 486.05 2.6383-26.602s11.945-11.618 18.385-19.996c12.051-15.679 35.035-21.898 54.801-22.728 25.06 3.6133 44.782 8.2721 60.609 22.981 14.759 13.716 24.359 28.113 31.935 45.515l-24.683 0.005c-14.165-46.278-31.176-45.653-67.652-50.492-19.948 5.5499-41.793 20.123-64.069 51.853z" stroke="#000" stroke-width="1px" fill="#2e3436"/>
    <circle id="circle4240" stroke-width="2" stroke-linecap="round" stroke-dashoffset="2.5" stroke="#000" cy="500.83" cx="204.81" r="68.943" fill="#555753"/>
    <circle id="circle4242" cx="204.81" stroke-linecap="round" stroke-dashoffset="2.5" stroke="#000" cy="500.83" r="47.982" stroke-width="2" fill="#eeeeec"/>
    <circle id="circle4244" cx="204.82" cy="501.39" r="47.679" fill="#888a85"/>
    <circle id="circle4246" stroke-width="2" stroke-linecap="round" stroke-dashoffset="2.5" stroke="#000" cy="501.39" cx="204.82" r="27.143" fill="url(#radialGradient4192)"/>
    <rect id="rect4248" ry="2.2321" rx="2.2321" transform="rotate(45)" stroke-dashoffset="2.5" height="3.3279" width="21.25" stroke="#000" stroke-linecap="round" y="172.14" x="488.88" stroke-width="2"/>
    <rect id="rect4250" transform="matrix(-.70711 .70711 .70711 .70711 0 0)" rx="2.2321" ry="2.2321" stroke-dashoffset="2.5" height="3.3279" width="21.25" stroke="#000" stroke-linecap="round" y="463.38" x="197.64" stroke-width="2"/>
    <rect id="rect4252" ry="2.2321" rx="2.2321" transform="matrix(-.70711 .70711 .70711 .70711 0 0)" stroke-dashoffset="2.5" height="3.3279" width="21.25" stroke="#000" stroke-linecap="round" y="532.66" x="199.25" stroke-width="2"/>
    <rect id="rect4254" transform="rotate(45)" rx="2.2321" ry="2.2321" stroke-dashoffset="2.5" height="3.3279" width="21.25" stroke="#000" stroke-linecap="round" y="242.32" x="489.95" stroke-width="2"/>
   </g>
   <path id="path4277" d="m89.124 358.02c-4.7052 0.48324-6.9111 0.90788-11.581 3.1609-5.7192 2.7595 1.7317 31.275 4.4619 44.47 0.73243 3.5398 6.2657 3.7806 9.6967 4.8555z" fill-rule="evenodd" stroke="#000" stroke-width="1px" fill="#d3d7cf"/>
   <path id="path4279" d="m94.227 454.09-3.7924-0.17582-0.47765-17.356 3.0286-0.12442z" fill-rule="evenodd" stroke="#000" stroke-width=".75" fill="#eeeeec"/>
   <path id="path4148" d="m91.073 354.45c38.814-9.6351 137.58-22.015 190.72-26.144 9.6561-0.75037 25.589-11.789 25.234-5.3773-0.15008 2.7122 10.336-0.97058 10.336-0.97058l60.709-89.257 366.86 4.6977 79.706 95.539c50.728 1.4618 99.452-0.45579 99.429 4.5873-6.9271 48.235-14.044 97.994-20.99 146.23 0 0-87.333 0.56955-93.035 0.37286-13.931-3.1035-5.4987-26.759-20.012-40.262-27.345-25.442-89.7-32.508-124.19-8.0948-21.519 15.234-23.734 62.87-23.734 62.87l-353.61 0.84371c0.20467-0.12464-13.254-57.07-46.44-73.069-11.145-5.3729-48.44-15.971-81.558 1.3985-12.152 6.3736-23.524 31.191-27.325 44.351-2.5254 8.7417-1.9578 18.885-1.9578 18.885-30.818-0.0852-33.609-0.74232-33.609-0.74232-3.091-29.273-8.9818-101.76-9.7395-125.18-0.24312-7.5152 3.2004-10.669 3.2004-10.669z" fill-rule="evenodd" stroke="#000" stroke-width="1px" fill="#eeeeec"/>
   <path id="path4154" d="m320.69 317.47s8.8654 4.4688 10.898 1.8001c8.3155-10.919 52.345-76.774 52.081-79.059-0.4611-3.9885-4.0185-4.6883-6.4489-6.6262" fill-rule="evenodd" fill-opacity=".23529" stroke="#000" stroke-width="3" fill="#729fcf"/>
   <path id="rect4170" d="m737.05 245.15 8.5765-6.8673 71.714 86.293c-9.1445 4.5404-19.968 4.8434-30.271 2.0021-11.414-8.6381-58.817-74.384-50.019-81.428z" fill-rule="evenodd" fill-opacity=".23567" fill="#729fcf"/>
   <path id="path4156" d="m745.42 238.03s-11.301 6.5863-10.788 10c2.0991 13.965 46.039 75.393 51.048 77.733 11.934 5.5734 32.06-0.0239 32.06-0.0239" stroke="#000" stroke-width="3" fill="none"/>
   <path id="rect4164" d="m566.07 241.62c1.5473-1.8301 6.3803-2.4511 6.3803-2.4511s111.17-2.0382 121.67 2.1665c7.5063 3.0049 44.318 53.149 51.924 70.231 5.8674 13.612-22.609 15.782-22.609 15.782l-145.81-0.23062s-5.3764 1.304-8.806-2.6795c-3.4839-4.0465-3.8489-8.3227-3.8489-8.3227l-0.3435-66.429s-0.4148-5.8677 1.4442-8.0666z" fill-rule="evenodd" fill-opacity=".23529" stroke-dashoffset="2.5" stroke="#000" stroke-linecap="round" stroke-width="2.4" fill="#729fcf"/>
   <path id="path4167" d="m687.44 240.16 47.864 70.686c2.7852 4.4902 0.0477 9.1936-10.578 16.65" stroke="#000" stroke-width="1.5" fill="none"/>
   <path id="path4173" d="m688.92 239.85 55.338-0.36433" stroke="#000" stroke-width="1px" fill="none"/>
   <path id="path4150" d="m386.57 227.98c14.296-13.747 101.12-15.323 185.05-17.386 83.485 0.16271 176.46 6.9114 179.36 13.419l-6.1726 13.26" fill-rule="evenodd" stroke="#000" stroke-width="2" fill="#eeeeec"/>
   <path id="path4160" d="m938.27 342.5-17.577 88.769m3.0048-91.36c6.307-0.38028 13.939 0.49588 15.529 3.713 3.2184 6.5098-3.4806 80.579-5.2993 83.936-1.3661 2.5222-7.1664 3.4884-13.151 3.3183l-4.0269 21.531-9.1246 1.4783" fill-rule="evenodd" stroke="#000" stroke-width="1px" fill="#eeeeec"/>
   <path id="path4175" d="m932.86 666.2c1.0714-0.17857 6.0714 0.71429 6.0714 0.71429 1.3604-9.2245 1.4176-18.449 1.6336-27.674l-1.2765-3.0407z" fill-rule="evenodd" transform="matrix(.99980 -.020240 .020240 .99980 -13.591 -273.93)" filter="url(#filter4197)" fill="#f57900"/>
   <path id="path4201" d="m932.64 373.22c1.8936-0.0383 6.4512 0.50087 6.4512 0.50087s-1.4061 34.039-4.9253 53.198c-0.18252 0.99366-0.73999 1.9288-2.6942 2.7502-3.8672 1.6255-10.388 1.4893-10.212 0.82673 0.82235-3.1128 2.558-13.697 4.7614-24.94 3.0456-15.541 6.6193-32.335 6.6193-32.335z" fill-rule="evenodd" fill-opacity=".71338" fill="#a40000"/>
   <path id="path4235" d="m330.46 494.84 236.03-1.2419c-1.7001 0.31884 7.908-151.5-8.645-165.02l-2.2335-76.237s-0.30649-6.3977-3.029-9.0315c-3.1474-3.0449-12.441-2.9544-12.441-2.9544-45.034 0.46489-84.126-7.2503-135.1 1.3947 0 0-8.7436 2.4122-11.157 5.8484-22.692 32.312-60.74 88.764-60.74 88.764z" fill-rule="evenodd" stroke="#000" stroke-width="1px" fill="#eeeeec"/>
   <path id="rect4239" d="m410.3 244.87c46.876-5.345 87.489-2.2871 132.72-1.7371 5.931-0.0547 9.4615 1.8812 9.3053 7.8804l0.71506 74.448-208.72 1.3856 49.974-72.409c2.2148-4.6982 11.797-8.7371 16.012-9.5683z" fill-rule="evenodd" fill-opacity=".23529" stroke-dashoffset="2.5" stroke="#000" stroke-linecap="round" stroke-width="1.5" fill="#729fcf"/>
   <path id="path4242" stroke-linejoin="bevel" d="m91.291 355.16c19.244-5.9663 79.761-15.263 156.81-18.612 242.4-10.535 660.85 2.267 674.82 1.8201" stroke="#000" stroke-linecap="round" stroke-width="2" fill="none"/>
   <path id="path4244" d="m477.78 241.79s3.1921 7.0358 6.4681 7.573c20.683 3.3917 45.049-0.39348 56.071 6.0637 5.3801 3.1519 4.0851 16.069 6.5744 19.064 1.4638 1.761 5.6365 3.9273 5.6365 3.9273" stroke="#000" stroke-width="1px" fill="none"/>
   <path id="path4246" d="m307.29 323.62c-1.2813 3.7172-1.4627 6.6543-0.74256 10.331" stroke="#000" stroke-width="1px" fill="none"/>
   <path id="path4248" d="m316.59 322.32s3.6271 9.0157 8.7314 11.758" stroke="#000" stroke-width="2" fill="none"/>
   <path id="path4250" d="m291.94 499.37 2.6404 6.9122 343.44-1.2371 0.94833-6.0919" fill-rule="evenodd" stroke="#000" stroke-width="1px" fill="#eeeeec"/>
   <path id="path4252" d="m511.12 359.19c1.2389-0.56091 14.808-0.83559 14.808-0.83559 7.4647-0.11351 13.258-0.4314 19.096-0.74379l0.54906-1.5516c3.3804 0.0879 6.7609 0.17569 10.141 0.26354 2.2798 1.1148 3.2726 4.5776 0.8551 6.9484l-10.433 0.74704 0.23528-1.6122-34.479-0.37366c-1.8874-1.4524-1.2023-1.9121-0.67454-2.9758" fill-rule="evenodd" stroke="#000" stroke-width=".5" fill="#babdb6"/>
   <ellipse id="path4254" stroke-linecap="round" fill-rule="evenodd" fill-opacity=".23529" rx="2.3685" ry="2.1987" stroke="#000" transform="rotate(-1.1597)" cy="370.85" cx="544.34" stroke-dashoffset="2.5" stroke-width=".5" fill="#729fcf"/>
   <rect id="rect4256" fill-rule="evenodd" fill-opacity=".23529" transform="rotate(-1.1597)" stroke-dashoffset="2.5" height=".37946" width="2.8571" stroke="#000" stroke-linecap="round" y="370.49" x="543.03" stroke-width=".5" fill="#729fcf"/>
   <path id="rect4267" d="m868.6 465.31 50.425-1.18c3.6087-0.0845 12.396 3.862 11.793 9.0874-0.85218 7.3893-11.95 9.6381-11.95 9.6381-7.298 1.6669-43.431 1.4486-53.274 1.2701-2.8341 0.17221-2.5831-0.27895-2.8679-2.9338l-0.1815-11.772c-0.241-3.5442 2.6465-4.0189 6.0554-4.1099z" fill-rule="evenodd" stroke-dashoffset="2.5" stroke="#000" stroke-linecap="round" stroke-width="2" fill="#eeeeec"/>
   <path id="rect4270" d="m919.81 436.29 1.6961-0.0343 0.46587 14.19-5.008-0.34514z" fill-rule="evenodd" fill-opacity=".75159" stroke-dashoffset="2.5" stroke="#000" stroke-linecap="round" stroke-width=".2" fill="#a40000"/>
   <path id="path4152" d="m378.01 233.48s-2.1598-3.5506-0.47118-5.6293l1.8674-0.54695 7.1576 0.81077c-0.8601 2.8835 239.26 5.2775 358.89 7.9162" fill-rule="evenodd" stroke="#000" stroke-width="1px" fill="#fff"/>
   <path id="path4174" d="m638.59 481.7s-16.581 0.79698-16.362-0.95713c3.5356-28.274 33.952-69.293 33.952-69.293 35.661-21.661 106.63-13.651 134.05-2.0606 24.166 18.491 27.888 38.823 34.586 67.672l-18.944 1.7839c-7.8759-46.71-24.869-57.823-101.45-61.289-65.755 16.188-52.627 39.377-65.837 64.144z" fill-rule="evenodd" fill="#fff"/>
   <g id="g4219" fill-rule="evenodd" transform="matrix(.99980 -.020240 .020240 .99980 -7.8354 10.37)">
    <path id="path4217" d="m135.61 468.74s-7.5761-1.5152-7.3236-2.7779c0.25254-1.2627 18.688-44.699 21.718-44.952 3.0305-0.25254 44.194-13.89 44.194-13.89l59.852 11.112 18.435 27.779 18.435 47.73-10.354-0.50507-40.659-67.428-72.478-2.0203c-8.0387 16.504-31.82 44.952-31.82 44.952z" stroke="#000" stroke-width="1px"/>
    <path id="path4215" d="m142.3 471.22-10.219-3.7448s6.9453-19.654 13.385-28.032c12.051-15.679 35.035-21.898 54.801-22.728 25.06 3.6133 44.782 8.2721 60.609 22.981 14.759 13.716 17.931 37.398 25.506 54.801l-13.255-2.4948c-14.165-46.278-36.89-55.295-73.366-60.135-19.948 5.5499-35.186 7.6225-57.461 39.353z" stroke="#000" stroke-width="1px" fill="#2e3436"/>
    <path id="path4171" d="m131.32 462.18s-9.0936-2.0388-8.8388-3.7881c4.1071-28.196 31.062-48.235 31.062-48.235 34.664-17.72 75.1-11.133 102.28 1.0102 23.787 18.976 39.597 42.236 45.709 71.216l-15.405 7.8287c-14.1-50.592-30.98-75.398-82.327-79.044-50.16-3.5662-62.121 25.163-72.478 51.013z" fill="#fff"/>
    <circle id="path4176" cx="204.81" stroke-linecap="round" stroke-dashoffset="2.5" stroke="#000" cy="500.83" r="68.943" stroke-width="2" fill="#555753"/>
    <circle id="circle4178" stroke-width="2" stroke-linecap="round" stroke-dashoffset="2.5" stroke="#000" cy="500.83" cx="204.81" r="47.982" fill="#eeeeec"/>
    <circle id="circle4194" cy="501.39" cx="204.82" r="47.679" fill="#888a85"/>
    <circle id="path4184" cx="204.82" stroke-linecap="round" stroke-dashoffset="2.5" stroke="#000" cy="501.39" r="27.143" stroke-width="2" fill="url(#radialGradient4192)"/>
    <rect id="rect4204" transform="rotate(45)" rx="2.2321" ry="2.2321" stroke-dashoffset="2.5" height="3.3279" width="21.25" stroke="#000" stroke-linecap="round" y="172.14" x="488.88" stroke-width="2"/>
    <rect id="rect4206" ry="2.2321" rx="2.2321" transform="matrix(-.70711 .70711 .70711 .70711 0 0)" stroke-dashoffset="2.5" height="3.3279" width="21.25" stroke="#000" stroke-linecap="round" y="463.38" x="197.64" stroke-width="2"/>
    <rect id="rect4208" transform="matrix(-.70711 .70711 .70711 .70711 0 0)" rx="2.2321" ry="2.2321" stroke-dashoffset="2.5" height="3.3279" width="21.25" stroke="#000" stroke-linecap="round" y="532.66" x="199.25" stroke-width="2"/>
    <rect id="rect4210" ry="2.2321" rx="2.2321" transform="rotate(45)" stroke-dashoffset="2.5" height="3.3279" width="21.25" stroke="#000" stroke-linecap="round" y="242.32" x="489.95" stroke-width="2"/>
   </g>
   <path id="rect4212" stroke-linejoin="bevel" d="m86.279 472.99 42.83-1.7601c1.2356-0.0508 2.2518 0.95015 2.2769 2.1865l0.31444 15.533c0.025 1.2364-0.94993 2.2862-2.1865 2.2769l-45.012-0.34c-13.179-7.04-4.639-16.48 1.781-17.9z" fill-rule="evenodd" stroke-dashoffset="2.5" stroke="#000" stroke-linecap="round" stroke-width="2" fill="#d3d7cf"/>
   <g id="g4271" stroke-linejoin="bevel" fill-rule="evenodd" transform="matrix(.99980 -.020240 .020240 .99980 -7.8354 10.37)" stroke-dashoffset="2.5" stroke="#000" stroke-linecap="round" stroke-width=".5" fill="#555753">
    <rect id="rect4268" transform="translate(0 -284.36)" rx=".71429" ry=".71429" width="4.6429" height="11.071" y="774.5" x="825"/>
    <g id="g4263">
     <path id="rect4258" d="m817.15 448.71 95.761 0.002c0.39571 0 5.172 0.12917 4.5742 3.0293 0 0 0.13061 3.5125-4.0747 3.9506l-96.473-1.9941s-0.1-2.908-0.1-3.1059c0-0.19786-0.0828-1.8815 0.31289-1.8815z" transform="matrix(.99817 .060426 -.060426 .99817 0 0)"/>
     <ellipse id="path4261" rx="2.2728" ry="2.8411" cy="506.56" cx="886.03"/>
    </g>
   </g>
   <path id="path4281" d="m89.778 440.23c-1.1499 1.4276-3.0419 3.6254-2.5169 6.6814 0.59269 2.539 2.0036 4.0653 3.2169 6.0602z" fill-rule="evenodd" stroke="#000" stroke-width=".5" fill="#f57900"/>
   <rect id="rect4283" ry=".71429" fill-rule="evenodd" rx=".71429" transform="rotate(-1.1597)" height="149.5" width="213.14" y="352.93" x="323.29" fill="url(#radialGradient4291)"/>
  </g>
 </g>
</svg>